<?xml version="1.0" encoding="UTF-8"?>
<!-- Generated by Pixelmator Pro 3.2.3 -->
<svg width="1000" height="1000" viewBox="0 0 1000 1000" xmlns="http://www.w3.org/2000/svg" xmlns:xlink="http://www.w3.org/1999/xlink">
    <g id="Gruppe">
        <path id="Pfad" fill="#929292" stroke="none" d="M 160 361.144592 L 160 384.070374 L 196.681213 384.070374 L 233.362442 384.070374 L 233.362442 519.790894 L 233.362442 655.511414 L 257.205261 655.511414 L 281.048035 655.511414 L 281.048035 519.790894 L 281.048035 384.070374 L 317.729279 384.070374 L 354.410492 384.070374 L 354.410492 361.144592 L 354.410492 338.218811 L 257.205261 338.218811 L 160 338.218811 L 160 361.144592 Z"/>
        <path id="path1" fill="#929292" stroke="none" d="M 385.956329 348.856384 C 424.83844 417.450256 566.427979 661.01355 567.344971 661.01355 C 568.078613 661.01355 588.986938 625.616211 614.113525 582.148926 L 659.598267 503.467743 L 662.532776 508.419708 C 664.183411 511.170807 684.908325 546.751587 708.384277 587.651123 C 731.860291 628.55072 751.668152 662.664246 752.401794 663.397888 C 753.685547 664.865112 874 458.349854 874 454.498291 C 874 452.664246 848.139771 406.079102 847.039307 406.079102 C 846.672546 406.079102 825.58075 442.393494 800.087341 486.777771 L 753.502197 567.293091 L 750.567688 562.341064 C 748.917114 559.590027 734.061096 534.096558 717.738037 505.66861 L 688.026245 453.948059 L 721.039307 396.725342 C 739.379944 365.362915 754.23584 339.319275 754.23584 338.952454 C 754.23584 338.585632 741.580811 338.218811 726.358093 338.218811 L 698.296997 338.218811 L 633.187805 451.013611 C 597.423584 513.004883 567.711792 563.80835 567.16156 563.80835 C 566.611389 563.80835 537.083008 513.004883 501.318787 451.013611 L 436.393005 338.218811 L 408.148468 338.218811 L 379.903931 338.218811 L 385.956329 348.856384 Z"/>
    </g>
</svg>
